<svg width="74" height="18" viewBox="0 0 74 18" fill="none" xmlns="http://www.w3.org/2000/svg">
<path d="M15.9086 5.96871C16.1245 5.96871 16.1965 6.04669 16.1965 6.25665V11.0076H18.638C18.8479 11.0076 18.9259 11.0856 18.9259 11.2956V11.7155C18.9259 11.9254 18.8479 12.0034 18.638 12.0034H15.4227C15.2127 12.0034 15.1287 11.9254 15.1287 11.7155V6.25665C15.1287 6.04669 15.2127 5.96871 15.4227 5.96871H15.9086ZM21.0554 8.06226C21.0554 6.67656 21.9313 5.84274 23.4549 5.84274C24.9786 5.84274 25.8544 6.67656 25.8544 8.06226V9.90986C25.8544 11.2956 24.9726 12.1294 23.4549 12.1294C21.9373 12.1294 21.0554 11.2956 21.0554 9.90986V8.06226ZM24.8466 8.06226C24.8466 7.28243 24.3607 6.86252 23.4849 6.86252C22.6091 6.86252 22.1292 7.28842 22.1292 8.06226V9.92185C22.1292 10.7077 22.6091 11.1216 23.4849 11.1216C24.3607 11.1216 24.8466 10.6897 24.8466 9.92185V8.06226ZM32.9989 8.69812C33.2328 8.69812 33.2868 8.7761 33.2868 8.98606V10.1258C33.2932 10.3943 33.2393 10.6608 33.1293 10.9057C33.0193 11.1507 32.8558 11.3679 32.6509 11.5415C32.1421 11.9467 31.5004 12.1478 30.8513 12.1054C29.2977 12.1054 28.4518 11.2716 28.4518 9.88586V8.02627C28.4518 6.65856 29.3277 5.81874 30.8513 5.81874C32.0511 5.81874 32.8309 6.29264 33.1608 7.24044C33.1793 7.27605 33.1892 7.31547 33.1897 7.35558C33.1903 7.39568 33.1815 7.43537 33.164 7.47147C33.1465 7.50757 33.1209 7.53911 33.0891 7.56356C33.0573 7.58802 33.0202 7.60473 32.9809 7.61236L32.513 7.77432C32.309 7.8463 32.225 7.80431 32.153 7.59436C32.0537 7.33813 31.8717 7.12234 31.636 6.98111C31.4002 6.83988 31.1241 6.78126 30.8513 6.81453C29.9695 6.81453 29.4896 7.24044 29.4896 8.01427V9.92185C29.4896 10.7077 29.9755 11.1216 30.8513 11.1216C31.7271 11.1216 32.267 10.7197 32.267 10.1318V9.68791H30.9653C30.7494 9.68791 30.6714 9.60392 30.6714 9.39397V8.98606C30.6714 8.7761 30.7494 8.69812 30.9653 8.69812H32.9989ZM35.7643 8.06226C35.7643 6.67656 36.6401 5.84274 38.1637 5.84274C39.6874 5.84274 40.5632 6.67656 40.5632 8.06226V9.90986C40.5632 11.2956 39.6814 12.1294 38.1637 12.1294C36.6461 12.1294 35.7643 11.2956 35.7643 9.90986V8.06226ZM39.5494 8.06226C39.5494 7.28243 39.0635 6.86252 38.1937 6.86252C37.3239 6.86252 36.832 7.28842 36.832 8.06226V9.92185C36.832 10.7077 37.3179 11.1216 38.1937 11.1216C39.0695 11.1216 39.5494 10.6897 39.5494 9.92185V8.06226ZM43.3886 6.14267C43.3886 6.0107 43.4306 5.96871 43.5626 5.96871H43.8385C43.9705 5.96871 44.0005 6.0107 44.0005 6.14267V11.8294C44.0005 11.9614 44.0005 12.0034 43.8385 12.0034H43.5626C43.4306 12.0034 43.3886 11.9614 43.3886 11.8294V6.14267ZM49.4653 5.96871C49.9649 5.96871 50.444 6.16716 50.7972 6.5204C51.1504 6.87364 51.3489 7.35274 51.3489 7.8523C51.3489 8.35186 51.1504 8.83096 50.7972 9.1842C50.444 9.53745 49.9649 9.7359 49.4653 9.7359H47.6657V11.8294C47.6657 11.9614 47.6357 12.0034 47.5097 12.0034H47.2278C47.1018 12.0034 47.0538 11.9614 47.0538 11.8294V6.14267C47.0538 6.0107 47.1018 5.96871 47.2278 5.96871H49.4653ZM49.4113 9.14202C49.583 9.14202 49.7531 9.1082 49.9118 9.04248C50.0704 8.97676 50.2146 8.88043 50.336 8.759C50.4574 8.63757 50.5538 8.49341 50.6195 8.33475C50.6852 8.17609 50.719 8.00604 50.719 7.83431C50.719 7.66257 50.6852 7.49252 50.6195 7.33386C50.5538 7.1752 50.4574 7.03104 50.336 6.90961C50.2146 6.78818 50.0704 6.69185 49.9118 6.62613C49.7531 6.56041 49.583 6.52659 49.4113 6.52659H47.6117V9.14202H49.4113ZM56.0339 5.84874C56.497 5.79762 56.9643 5.89726 57.3663 6.13285C57.7683 6.36844 58.0836 6.72741 58.2654 7.15645C58.3134 7.25243 58.2654 7.33042 58.1694 7.37841L57.9055 7.49838C57.7975 7.54037 57.7555 7.53437 57.6895 7.4204C57.5536 7.10198 57.32 6.83503 57.0223 6.65818C56.7247 6.48133 56.3785 6.40373 56.0339 6.43661C55.0201 6.43661 54.4682 6.83852 54.4682 7.55837C54.4623 7.77836 54.5362 7.99306 54.6762 8.16285C54.8163 8.33263 55.013 8.44605 55.2301 8.48217C55.5527 8.58739 55.8872 8.65187 56.2258 8.67413C56.6358 8.69599 57.0401 8.77888 57.4256 8.92007C57.7211 9.01357 57.9754 9.20593 58.1458 9.46482C58.3162 9.72371 58.3923 10.0334 58.3614 10.3418C58.3614 11.4635 57.5456 12.1414 56.0459 12.1414C55.554 12.1976 55.0577 12.0837 54.6396 11.8184C54.2215 11.5532 53.907 11.1527 53.7484 10.6837C53.7378 10.6623 53.7321 10.6389 53.7316 10.615C53.7311 10.5911 53.7359 10.5675 53.7457 10.5457C53.7554 10.5239 53.7699 10.5046 53.788 10.489C53.806 10.4735 53.8274 10.4621 53.8504 10.4557L54.1143 10.3598C54.1351 10.3513 54.1574 10.3472 54.1799 10.3478C54.2023 10.3484 54.2244 10.3537 54.2447 10.3632C54.265 10.3728 54.2831 10.3865 54.2978 10.4035C54.3126 10.4205 54.3236 10.4403 54.3302 10.4617C54.4644 10.8006 54.7031 11.088 55.0115 11.2821C55.32 11.4762 55.6823 11.5671 56.0459 11.5415C57.1796 11.5415 57.7375 11.1456 57.7375 10.3418C57.7481 10.1305 57.6833 9.92227 57.5548 9.75421C57.4263 9.58616 57.2423 9.46914 57.0357 9.42396C56.7253 9.33138 56.4052 9.27501 56.0819 9.256L55.434 9.17202C55.2313 9.12898 55.031 9.07491 54.8341 9.01005C54.6397 8.95132 54.4584 8.85559 54.3003 8.72811C54.1411 8.58401 54.0157 8.40668 53.9327 8.20867C53.8498 8.01067 53.8114 7.79685 53.8204 7.58236C53.8624 6.53259 54.6482 5.84874 56.0339 5.84874ZM61.5947 9.95185C61.6202 10.3761 61.8066 10.7745 62.116 11.0659C62.4254 11.3573 62.8343 11.5195 63.2593 11.5195C63.6843 11.5195 64.0932 11.3573 64.4026 11.0659C64.712 10.7745 64.8985 10.3761 64.924 9.95185V6.14267C64.924 6.0107 64.9659 5.96871 65.0979 5.96871H65.3739C65.5058 5.96871 65.5478 6.0107 65.5478 6.14267V9.94585C65.5478 11.3076 64.744 12.1294 63.2623 12.1294C61.7806 12.1294 60.9768 11.3076 60.9768 9.94585V6.14267C60.9768 6.0107 61.0188 5.96871 61.1448 5.96871H61.4267C61.5527 5.96871 61.5947 6.0107 61.5947 6.14267V9.95185ZM73.826 5.96871C73.958 5.96871 74 6.0107 74 6.14267V11.8294C74 11.9614 73.958 12.0034 73.826 12.0034H73.5741C73.4481 12.0034 73.4061 11.9614 73.4061 11.8294V8.36819C73.406 7.86457 73.4401 7.36152 73.5081 6.86252H73.4721C73.2847 7.31884 73.0662 7.76178 72.8183 8.18823L71.5285 10.4617C71.5128 10.5012 71.4854 10.5349 71.4501 10.5585C71.4147 10.582 71.373 10.5943 71.3306 10.5937H71.1626C71.1195 10.5939 71.0772 10.5815 71.041 10.5581C71.0047 10.5347 70.9762 10.5012 70.9587 10.4617L69.6509 8.16424C69.4187 7.74388 69.2182 7.30676 69.0511 6.85652H69.0151C69.0765 7.36011 69.1086 7.86686 69.1111 8.37419V11.8294C69.1111 11.9614 69.0691 12.0034 68.9371 12.0034H68.7031C68.5712 12.0034 68.5292 11.9614 68.5292 11.8294V6.14267C68.5292 6.0107 68.5712 5.96871 68.7031 5.96871H68.9191C68.9684 5.96411 69.018 5.97491 69.061 5.99961C69.1039 6.02432 69.1382 6.06172 69.159 6.10668L71.2586 9.83787L73.3461 6.14267C73.4121 6.0167 73.4481 5.9987 73.5801 5.9987L73.826 5.96871ZM5.23687 10.6717V15.0088C5.23687 15.175 5.17082 15.3345 5.05326 15.452C4.9357 15.5696 4.77626 15.6356 4.61 15.6356C4.44375 15.6356 4.2843 15.5696 4.16674 15.452C4.04918 15.3345 3.98314 15.175 3.98314 15.0088V10.6777C4.15768 10.8051 4.36695 10.8763 4.58301 10.8816C4.81854 10.8884 5.04928 10.8143 5.23687 10.6717ZM10.5757 9.41796C10.4166 9.41796 10.264 9.48116 10.1515 9.59366C10.039 9.70616 9.97584 9.85874 9.97584 10.0178V10.7737C9.97584 10.9399 10.0419 11.0994 10.1594 11.2169C10.277 11.3345 10.4365 11.4005 10.6027 11.4005C10.769 11.4005 10.9284 11.3345 11.046 11.2169C11.1635 11.0994 11.2296 10.9399 11.2296 10.7737V10.0478C11.2342 9.96181 11.2203 9.8758 11.1888 9.79564C11.1572 9.71548 11.1088 9.64306 11.0468 9.58329C10.9847 9.52353 10.9105 9.47783 10.8292 9.4493C10.748 9.42077 10.6615 9.41008 10.5757 9.41796ZM2.62143 12.3153C2.40558 12.3089 2.19663 12.2378 2.02156 12.1114V16.4604C2.02156 16.6275 2.08792 16.7877 2.20605 16.9058C2.32417 17.0239 2.48438 17.0903 2.65143 17.0903C2.81848 17.0903 2.97869 17.0239 3.09681 16.9058C3.21493 16.7877 3.28129 16.6275 3.28129 16.4604V12.1414C3.08541 12.268 2.85428 12.3289 2.62143 12.3153ZM8.62014 8.11625C8.53887 8.11218 8.45763 8.12468 8.38136 8.153C8.30508 8.18132 8.23536 8.22486 8.17644 8.28098C8.11752 8.33709 8.07063 8.4046 8.03863 8.47941C8.00662 8.55422 7.99017 8.63475 7.99027 8.71612V12.0574C7.99027 12.2244 8.05663 12.3847 8.17476 12.5028C8.29288 12.6209 8.45309 12.6873 8.62014 12.6873C8.78719 12.6873 8.9474 12.6209 9.06552 12.5028C9.18364 12.3847 9.25 12.2244 9.25 12.0574V8.75811C9.25478 8.67154 9.24074 8.58496 9.20885 8.50433C9.17695 8.42371 9.12796 8.35096 9.06524 8.29109C9.00252 8.23123 8.92757 8.18567 8.84555 8.15756C8.76353 8.12944 8.6764 8.11944 8.59014 8.12824L8.62014 8.11625ZM6.62857 9.39997C6.40263 9.39842 6.18266 9.3272 5.9987 9.19601V13.5571C5.9987 13.7241 6.06506 13.8843 6.18319 14.0024C6.30131 14.1206 6.46152 14.1869 6.62857 14.1869C6.79562 14.1869 6.95582 14.1206 7.07395 14.0024C7.19207 13.8843 7.25843 13.7241 7.25843 13.5571V9.20201C7.06812 9.34377 6.83581 9.41769 6.59857 9.41197L6.62857 9.39997ZM1.25973 12.7412V0.55788C1.25815 0.409372 1.19804 0.267485 1.09247 0.163032C0.986889 0.0585779 0.844367 -8.40337e-06 0.695851 9.04078e-10H0.563878C0.415362 -8.40337e-06 0.27284 0.0585779 0.167263 0.163032C0.0616858 0.267485 0.00157996 0.409372 0 0.55788V12.7412C0 12.8908 0.0594087 13.0342 0.165156 13.14C0.270904 13.2457 0.414329 13.3051 0.563878 13.3051H0.695851C0.8454 13.3051 0.988825 13.2457 1.09457 13.14C1.20032 13.0342 1.25973 12.8908 1.25973 12.7412ZM2.68742 11.8534H2.55545C2.4059 11.8534 2.26247 11.794 2.15673 11.6883C2.05098 11.5825 1.99157 11.4391 1.99157 11.2896V2.00957C1.99315 1.86106 2.05325 1.71917 2.15883 1.61472C2.26441 1.51026 2.40693 1.45168 2.55545 1.45169H2.68742C2.83594 1.45168 2.97846 1.51026 3.08404 1.61472C3.18961 1.71917 3.24972 1.86106 3.2513 2.00957V11.3016C3.2513 11.3756 3.23671 11.4489 3.20837 11.5173C3.18004 11.5858 3.1385 11.6479 3.08614 11.7003C3.03378 11.7526 2.97162 11.7942 2.90321 11.8225C2.83479 11.8509 2.76147 11.8654 2.68742 11.8654V11.8534ZM4.67299 10.4257H4.53502C4.38706 10.4257 4.24516 10.367 4.14054 10.2623C4.03592 10.1577 3.97714 10.0158 3.97714 9.86787V3.44925C3.97635 3.37549 3.99019 3.3023 4.01787 3.23392C4.04555 3.16554 4.08652 3.10333 4.1384 3.05089C4.19029 2.99845 4.25205 2.95682 4.32013 2.92841C4.38821 2.9 4.46125 2.88537 4.53502 2.88538H4.67299C4.8215 2.88696 4.96339 2.94706 5.06784 3.05264C5.17229 3.15822 5.23088 3.30074 5.23087 3.44925V9.86787C5.23087 10.0158 5.17209 10.1577 5.06747 10.2623C4.96285 10.367 4.82095 10.4257 4.67299 10.4257ZM6.65856 8.95606H6.53259C6.38407 8.95607 6.24155 8.89749 6.13597 8.79303C6.0304 8.68858 5.97029 8.54669 5.96871 8.39818V4.94293C5.96378 4.86591 5.97472 4.7887 6.00084 4.71608C6.02697 4.64345 6.06772 4.57697 6.12058 4.52073C6.17344 4.4645 6.23728 4.41971 6.30815 4.38915C6.37902 4.35859 6.45541 4.3429 6.53259 4.34306H6.66456C6.81411 4.34306 6.95753 4.40247 7.06328 4.50822C7.16903 4.61396 7.22844 4.75739 7.22844 4.90694V8.38619C7.22923 8.46074 7.21523 8.53471 7.18725 8.60382C7.15927 8.67292 7.11786 8.7358 7.06542 8.78879C7.01298 8.84179 6.95055 8.88386 6.88174 8.91258C6.81293 8.94129 6.73912 8.95607 6.66456 8.95606H6.65856ZM8.65013 7.66634H8.51816C8.36861 7.66634 8.22518 7.60693 8.11944 7.50119C8.01369 7.39544 7.95428 7.25201 7.95428 7.10246V6.20866C7.95586 6.06015 8.01596 5.91826 8.12154 5.81381C8.22712 5.70935 8.36964 5.65077 8.51816 5.65078H8.65013C8.79865 5.65077 8.94117 5.70935 9.04675 5.81381C9.15232 5.91826 9.21243 6.06015 9.21401 6.20866V7.10246C9.21402 7.25098 9.15543 7.3935 9.05098 7.49908C8.94652 7.60466 8.80464 7.66476 8.65613 7.66634H8.65013Z" fill="black"/>
<path d="M15.9086 5.96871C16.1245 5.96871 16.1965 6.04669 16.1965 6.25665V11.0076H18.638C18.8479 11.0076 18.9259 11.0856 18.9259 11.2956V11.7155C18.9259 11.9254 18.8479 12.0034 18.638 12.0034H15.4227C15.2127 12.0034 15.1287 11.9254 15.1287 11.7155V6.25665C15.1287 6.04669 15.2127 5.96871 15.4227 5.96871H15.9086ZM21.0554 8.06226C21.0554 6.67656 21.9313 5.84274 23.4549 5.84274C24.9786 5.84274 25.8544 6.67656 25.8544 8.06226V9.90986C25.8544 11.2956 24.9726 12.1294 23.4549 12.1294C21.9373 12.1294 21.0554 11.2956 21.0554 9.90986V8.06226ZM24.8466 8.06226C24.8466 7.28243 24.3607 6.86252 23.4849 6.86252C22.6091 6.86252 22.1292 7.28842 22.1292 8.06226V9.92185C22.1292 10.7077 22.6091 11.1216 23.4849 11.1216C24.3607 11.1216 24.8466 10.6897 24.8466 9.92185V8.06226ZM32.9989 8.69812C33.2328 8.69812 33.2868 8.7761 33.2868 8.98606V10.1258C33.2932 10.3943 33.2393 10.6608 33.1293 10.9057C33.0193 11.1507 32.8558 11.3679 32.6509 11.5415C32.1421 11.9467 31.5004 12.1478 30.8513 12.1054C29.2977 12.1054 28.4518 11.2716 28.4518 9.88586V8.02627C28.4518 6.65856 29.3277 5.81874 30.8513 5.81874C32.0511 5.81874 32.8309 6.29264 33.1608 7.24044C33.1793 7.27605 33.1892 7.31547 33.1897 7.35558C33.1903 7.39568 33.1815 7.43537 33.164 7.47147C33.1465 7.50757 33.1209 7.53911 33.0891 7.56356C33.0573 7.58802 33.0202 7.60473 32.9809 7.61236L32.513 7.77432C32.309 7.8463 32.225 7.80431 32.153 7.59436C32.0537 7.33813 31.8717 7.12234 31.636 6.98111C31.4002 6.83988 31.1241 6.78126 30.8513 6.81453C29.9695 6.81453 29.4896 7.24044 29.4896 8.01427V9.92185C29.4896 10.7077 29.9755 11.1216 30.8513 11.1216C31.7271 11.1216 32.267 10.7197 32.267 10.1318V9.68791H30.9653C30.7494 9.68791 30.6714 9.60392 30.6714 9.39397V8.98606C30.6714 8.7761 30.7494 8.69812 30.9653 8.69812H32.9989ZM35.7643 8.06226C35.7643 6.67656 36.6401 5.84274 38.1637 5.84274C39.6874 5.84274 40.5632 6.67656 40.5632 8.06226V9.90986C40.5632 11.2956 39.6814 12.1294 38.1637 12.1294C36.6461 12.1294 35.7643 11.2956 35.7643 9.90986V8.06226ZM39.5494 8.06226C39.5494 7.28243 39.0635 6.86252 38.1937 6.86252C37.3239 6.86252 36.832 7.28842 36.832 8.06226V9.92185C36.832 10.7077 37.3179 11.1216 38.1937 11.1216C39.0695 11.1216 39.5494 10.6897 39.5494 9.92185V8.06226ZM43.3886 6.14267C43.3886 6.0107 43.4306 5.96871 43.5626 5.96871H43.8385C43.9705 5.96871 44.0005 6.0107 44.0005 6.14267V11.8294C44.0005 11.9614 44.0005 12.0034 43.8385 12.0034H43.5626C43.4306 12.0034 43.3886 11.9614 43.3886 11.8294V6.14267ZM49.4653 5.96871C49.9649 5.96871 50.444 6.16716 50.7972 6.5204C51.1504 6.87364 51.3489 7.35274 51.3489 7.8523C51.3489 8.35186 51.1504 8.83096 50.7972 9.1842C50.444 9.53745 49.9649 9.7359 49.4653 9.7359H47.6657V11.8294C47.6657 11.9614 47.6357 12.0034 47.5097 12.0034H47.2278C47.1018 12.0034 47.0538 11.9614 47.0538 11.8294V6.14267C47.0538 6.0107 47.1018 5.96871 47.2278 5.96871H49.4653ZM49.4113 9.14202C49.583 9.14202 49.7531 9.1082 49.9118 9.04248C50.0704 8.97676 50.2146 8.88043 50.336 8.759C50.4574 8.63757 50.5538 8.49341 50.6195 8.33475C50.6852 8.17609 50.719 8.00604 50.719 7.83431C50.719 7.66257 50.6852 7.49252 50.6195 7.33386C50.5538 7.1752 50.4574 7.03104 50.336 6.90961C50.2146 6.78818 50.0704 6.69185 49.9118 6.62613C49.7531 6.56041 49.583 6.52659 49.4113 6.52659H47.6117V9.14202H49.4113ZM56.0339 5.84874C56.497 5.79762 56.9643 5.89726 57.3663 6.13285C57.7683 6.36844 58.0836 6.72741 58.2654 7.15645C58.3134 7.25243 58.2654 7.33042 58.1694 7.37841L57.9055 7.49838C57.7975 7.54037 57.7555 7.53437 57.6895 7.4204C57.5536 7.10198 57.32 6.83503 57.0223 6.65818C56.7247 6.48133 56.3785 6.40373 56.0339 6.43661C55.0201 6.43661 54.4682 6.83852 54.4682 7.55837C54.4623 7.77836 54.5362 7.99306 54.6762 8.16285C54.8163 8.33263 55.013 8.44605 55.2301 8.48217C55.5527 8.58739 55.8872 8.65187 56.2258 8.67413C56.6358 8.69599 57.0401 8.77888 57.4256 8.92007C57.7211 9.01357 57.9754 9.20593 58.1458 9.46482C58.3162 9.72371 58.3923 10.0334 58.3614 10.3418C58.3614 11.4635 57.5456 12.1414 56.0459 12.1414C55.554 12.1976 55.0577 12.0837 54.6396 11.8184C54.2215 11.5532 53.907 11.1527 53.7484 10.6837C53.7378 10.6623 53.7321 10.6389 53.7316 10.615C53.7311 10.5911 53.7359 10.5675 53.7457 10.5457C53.7554 10.5239 53.7699 10.5046 53.788 10.489C53.806 10.4735 53.8274 10.4621 53.8504 10.4557L54.1143 10.3598C54.1351 10.3513 54.1574 10.3472 54.1799 10.3478C54.2023 10.3484 54.2244 10.3537 54.2447 10.3632C54.265 10.3728 54.2831 10.3865 54.2978 10.4035C54.3126 10.4205 54.3236 10.4403 54.3302 10.4617C54.4644 10.8006 54.7031 11.088 55.0115 11.2821C55.32 11.4762 55.6823 11.5671 56.0459 11.5415C57.1796 11.5415 57.7375 11.1456 57.7375 10.3418C57.7481 10.1305 57.6833 9.92227 57.5548 9.75421C57.4263 9.58616 57.2423 9.46914 57.0357 9.42396C56.7253 9.33138 56.4052 9.27501 56.0819 9.256L55.434 9.17202C55.2313 9.12898 55.031 9.07491 54.8341 9.01005C54.6397 8.95132 54.4584 8.85559 54.3003 8.72811C54.1411 8.58401 54.0157 8.40668 53.9327 8.20867C53.8498 8.01067 53.8114 7.79685 53.8204 7.58236C53.8624 6.53259 54.6482 5.84874 56.0339 5.84874ZM61.5947 9.95185C61.6202 10.3761 61.8066 10.7745 62.116 11.0659C62.4254 11.3573 62.8343 11.5195 63.2593 11.5195C63.6843 11.5195 64.0932 11.3573 64.4026 11.0659C64.712 10.7745 64.8985 10.3761 64.924 9.95185V6.14267C64.924 6.0107 64.9659 5.96871 65.0979 5.96871H65.3739C65.5058 5.96871 65.5478 6.0107 65.5478 6.14267V9.94585C65.5478 11.3076 64.744 12.1294 63.2623 12.1294C61.7806 12.1294 60.9768 11.3076 60.9768 9.94585V6.14267C60.9768 6.0107 61.0188 5.96871 61.1448 5.96871H61.4267C61.5527 5.96871 61.5947 6.0107 61.5947 6.14267V9.95185ZM73.826 5.96871C73.958 5.96871 74 6.0107 74 6.14267V11.8294C74 11.9614 73.958 12.0034 73.826 12.0034H73.5741C73.4481 12.0034 73.4061 11.9614 73.4061 11.8294V8.36819C73.406 7.86457 73.4401 7.36152 73.5081 6.86252H73.4721C73.2847 7.31884 73.0662 7.76178 72.8183 8.18823L71.5285 10.4617C71.5128 10.5012 71.4854 10.5349 71.4501 10.5585C71.4147 10.582 71.373 10.5943 71.3306 10.5937H71.1626C71.1195 10.5939 71.0772 10.5815 71.041 10.5581C71.0047 10.5347 70.9762 10.5012 70.9587 10.4617L69.6509 8.16424C69.4187 7.74388 69.2182 7.30676 69.0511 6.85652H69.0151C69.0765 7.36011 69.1086 7.86686 69.1111 8.37419V11.8294C69.1111 11.9614 69.0691 12.0034 68.9371 12.0034H68.7031C68.5712 12.0034 68.5292 11.9614 68.5292 11.8294V6.14267C68.5292 6.0107 68.5712 5.96871 68.7031 5.96871H68.9191C68.9684 5.96411 69.018 5.97491 69.061 5.99961C69.1039 6.02432 69.1382 6.06172 69.159 6.10668L71.2586 9.83787L73.3461 6.14267C73.4121 6.0167 73.4481 5.9987 73.5801 5.9987L73.826 5.96871ZM5.23687 10.6717V15.0088C5.23687 15.175 5.17082 15.3345 5.05326 15.452C4.9357 15.5696 4.77626 15.6356 4.61 15.6356C4.44375 15.6356 4.2843 15.5696 4.16674 15.452C4.04918 15.3345 3.98314 15.175 3.98314 15.0088V10.6777C4.15768 10.8051 4.36695 10.8763 4.58301 10.8816C4.81854 10.8884 5.04928 10.8143 5.23687 10.6717ZM10.5757 9.41796C10.4166 9.41796 10.264 9.48116 10.1515 9.59366C10.039 9.70616 9.97584 9.85874 9.97584 10.0178V10.7737C9.97584 10.9399 10.0419 11.0994 10.1594 11.2169C10.277 11.3345 10.4365 11.4005 10.6027 11.4005C10.769 11.4005 10.9284 11.3345 11.046 11.2169C11.1635 11.0994 11.2296 10.9399 11.2296 10.7737V10.0478C11.2342 9.96181 11.2203 9.8758 11.1888 9.79564C11.1572 9.71548 11.1088 9.64306 11.0468 9.58329C10.9847 9.52353 10.9105 9.47783 10.8292 9.4493C10.748 9.42077 10.6615 9.41008 10.5757 9.41796ZM2.62143 12.3153C2.40558 12.3089 2.19663 12.2378 2.02156 12.1114V16.4604C2.02156 16.6275 2.08792 16.7877 2.20605 16.9058C2.32417 17.0239 2.48438 17.0903 2.65143 17.0903C2.81848 17.0903 2.97869 17.0239 3.09681 16.9058C3.21493 16.7877 3.28129 16.6275 3.28129 16.4604V12.1414C3.08541 12.268 2.85428 12.3289 2.62143 12.3153ZM8.62014 8.11625C8.53887 8.11218 8.45763 8.12468 8.38136 8.153C8.30508 8.18132 8.23536 8.22486 8.17644 8.28098C8.11752 8.33709 8.07063 8.4046 8.03863 8.47941C8.00662 8.55422 7.99017 8.63475 7.99027 8.71612V12.0574C7.99027 12.2244 8.05663 12.3847 8.17476 12.5028C8.29288 12.6209 8.45309 12.6873 8.62014 12.6873C8.78719 12.6873 8.9474 12.6209 9.06552 12.5028C9.18364 12.3847 9.25 12.2244 9.25 12.0574V8.75811C9.25478 8.67154 9.24074 8.58496 9.20885 8.50433C9.17695 8.42371 9.12796 8.35096 9.06524 8.29109C9.00252 8.23123 8.92757 8.18567 8.84555 8.15756C8.76353 8.12944 8.6764 8.11944 8.59014 8.12824L8.62014 8.11625ZM6.62857 9.39997C6.40263 9.39842 6.18266 9.3272 5.9987 9.19601V13.5571C5.9987 13.7241 6.06506 13.8843 6.18319 14.0024C6.30131 14.1206 6.46152 14.1869 6.62857 14.1869C6.79562 14.1869 6.95582 14.1206 7.07395 14.0024C7.19207 13.8843 7.25843 13.7241 7.25843 13.5571V9.20201C7.06812 9.34377 6.83581 9.41769 6.59857 9.41197L6.62857 9.39997ZM1.25973 12.7412V0.55788C1.25815 0.409372 1.19804 0.267485 1.09247 0.163032C0.986889 0.0585779 0.844367 -8.40337e-06 0.695851 9.04078e-10H0.563878C0.415362 -8.40337e-06 0.27284 0.0585779 0.167263 0.163032C0.0616858 0.267485 0.00157996 0.409372 0 0.55788V12.7412C0 12.8908 0.0594087 13.0342 0.165156 13.14C0.270904 13.2457 0.414329 13.3051 0.563878 13.3051H0.695851C0.8454 13.3051 0.988825 13.2457 1.09457 13.14C1.20032 13.0342 1.25973 12.8908 1.25973 12.7412ZM2.68742 11.8534H2.55545C2.4059 11.8534 2.26247 11.794 2.15673 11.6883C2.05098 11.5825 1.99157 11.4391 1.99157 11.2896V2.00957C1.99315 1.86106 2.05325 1.71917 2.15883 1.61472C2.26441 1.51026 2.40693 1.45168 2.55545 1.45169H2.68742C2.83594 1.45168 2.97846 1.51026 3.08404 1.61472C3.18961 1.71917 3.24972 1.86106 3.2513 2.00957V11.3016C3.2513 11.3756 3.23671 11.4489 3.20837 11.5173C3.18004 11.5858 3.1385 11.6479 3.08614 11.7003C3.03378 11.7526 2.97162 11.7942 2.90321 11.8225C2.83479 11.8509 2.76147 11.8654 2.68742 11.8654V11.8534ZM4.67299 10.4257H4.53502C4.38706 10.4257 4.24516 10.367 4.14054 10.2623C4.03592 10.1577 3.97714 10.0158 3.97714 9.86787V3.44925C3.97635 3.37549 3.99019 3.3023 4.01787 3.23392C4.04555 3.16554 4.08652 3.10333 4.1384 3.05089C4.19029 2.99845 4.25205 2.95682 4.32013 2.92841C4.38821 2.9 4.46125 2.88537 4.53502 2.88538H4.67299C4.8215 2.88696 4.96339 2.94706 5.06784 3.05264C5.17229 3.15822 5.23088 3.30074 5.23087 3.44925V9.86787C5.23087 10.0158 5.17209 10.1577 5.06747 10.2623C4.96285 10.367 4.82095 10.4257 4.67299 10.4257ZM6.65856 8.95606H6.53259C6.38407 8.95607 6.24155 8.89749 6.13597 8.79303C6.0304 8.68858 5.97029 8.54669 5.96871 8.39818V4.94293C5.96378 4.86591 5.97472 4.7887 6.00084 4.71608C6.02697 4.64345 6.06772 4.57697 6.12058 4.52073C6.17344 4.4645 6.23728 4.41971 6.30815 4.38915C6.37902 4.35859 6.45541 4.3429 6.53259 4.34306H6.66456C6.81411 4.34306 6.95753 4.40247 7.06328 4.50822C7.16903 4.61396 7.22844 4.75739 7.22844 4.90694V8.38619C7.22923 8.46074 7.21523 8.53471 7.18725 8.60382C7.15927 8.67292 7.11786 8.7358 7.06542 8.78879C7.01298 8.84179 6.95055 8.88386 6.88174 8.91258C6.81293 8.94129 6.73912 8.95607 6.66456 8.95606H6.65856ZM8.65013 7.66634H8.51816C8.36861 7.66634 8.22518 7.60693 8.11944 7.50119C8.01369 7.39544 7.95428 7.25201 7.95428 7.10246V6.20866C7.95586 6.06015 8.01596 5.91826 8.12154 5.81381C8.22712 5.70935 8.36964 5.65077 8.51816 5.65078H8.65013C8.79865 5.65077 8.94117 5.70935 9.04675 5.81381C9.15232 5.91826 9.21243 6.06015 9.21401 6.20866V7.10246C9.21402 7.25098 9.15543 7.3935 9.05098 7.49908C8.94652 7.60466 8.80464 7.66476 8.65613 7.66634H8.65013Z" fill="black" fill-opacity="0.2"/>
</svg>
